<?xml version="1.0" encoding="UTF-8" standalone="no"?>
<!-- Generator: Adobe Illustrator 18.1.1, SVG Export Plug-In . SVG Version: 6.00 Build 0)  -->

<svg
   xmlns:dc="http://purl.org/dc/elements/1.1/"
   xmlns:cc="http://creativecommons.org/ns#"
   xmlns:rdf="http://www.w3.org/1999/02/22-rdf-syntax-ns#"
   xmlns:svg="http://www.w3.org/2000/svg"
   xmlns="http://www.w3.org/2000/svg"
   xmlns:sodipodi="http://sodipodi.sourceforge.net/DTD/sodipodi-0.dtd"
   xmlns:inkscape="http://www.inkscape.org/namespaces/inkscape"
   version="1.1"
   id="Layer_1"
   x="0px"
   y="0px"
   viewBox="0 0 16 9.5"
   enable-background="new 0 0 64 64"
   xml:space="preserve"
   inkscape:version="0.91 r"
   sodipodi:docname="sortArrowUp.svg"
   inkscape:export-filename="/home/ro/Documents/Geoforce/sort_arrow_up.png"
   inkscape:export-xdpi="45.505619"
   inkscape:export-ydpi="45.505619"
   width="16"
   height="9.5"><metadata
     id="metadata4185"><rdf:RDF><cc:Work
         rdf:about=""><dc:format>image/svg+xml</dc:format><dc:type
           rdf:resource="http://purl.org/dc/dcmitype/StillImage" /><dc:title></dc:title></cc:Work></rdf:RDF></metadata><defs
     id="defs4183" /><sodipodi:namedview
     pagecolor="#ffffff"
     bordercolor="#666666"
     borderopacity="1"
     objecttolerance="10"
     gridtolerance="10"
     guidetolerance="10"
     inkscape:pageopacity="0"
     inkscape:pageshadow="2"
     inkscape:window-width="1375"
     inkscape:window-height="1047"
     id="namedview4181"
     showgrid="false"
     fit-margin-top="0"
     fit-margin-left="0"
     fit-margin-right="0"
     fit-margin-bottom="0"
     inkscape:zoom="13.25"
     inkscape:cx="25.483019"
     inkscape:cy="22.900022"
     inkscape:window-x="669"
     inkscape:window-y="0"
     inkscape:window-maximized="0"
     inkscape:current-layer="Layer_1"
     showborder="false" /><path
     d="M 15.709561,7.578665 C 15.894378,7.792138 16,8.058993 16,8.352543 16,8.992971 15.498338,9.5 14.864697,9.5 14.521462,9.5 14.231011,9.339878 14.019797,9.126412 L 8,2.8286553 1.9801998,9.126412 C 1.7689779,9.366573 1.4785482,9.5 1.1353145,9.5 0.50165038,9.5 0,8.992971 0,8.352543 0,8.058993 0.10561038,7.792138 0.29042914,7.578665 l 0,0 6.94389086,-7.2851272 0,0 C 7.4455293,0.1067334 7.7095641,0 8,0 8.2904371,0 8.5544726,0.1067334 8.7656795,0.2935378 l 6.9438815,7.2851272 0,0 z"
     id="path4179"
     inkscape:connector-curvature="0"
     style="fill:#007db5" /></svg>